<?xml version="1.0" encoding="UTF-8" standalone="no"?><!DOCTYPE svg PUBLIC "-//W3C//DTD SVG 1.1//EN" "http://www.w3.org/Graphics/SVG/1.1/DTD/svg11.dtd"><svg width="100%" height="100%" viewBox="0 0 257 257" version="1.1" xmlns="http://www.w3.org/2000/svg" xmlns:xlink="http://www.w3.org/1999/xlink" xml:space="preserve" xmlns:serif="http://www.serif.com/" style="fill-rule:evenodd;clip-rule:evenodd;stroke-linejoin:round;stroke-miterlimit:2;"><rect id="icon" x="0.287" y="0.492" width="256" height="256" style="fill:none;"/><clipPath id="_clip1"><rect x="0.287" y="0.492" width="256" height="256"/></clipPath><g clip-path="url(#_clip1)"><g><circle cx="128.618" cy="128.262" r="118.692" style="fill:#fff;"/><path d="M221.036,165.014l-0,-25.464c-0,-8.315 -5.645,-12.536 -11.61,-12.536c-6.479,0 -12.601,3.799 -12.601,12.132l0,25.868l-14.264,-0l0,-51.237l14.264,-0l0,3.382c3.191,-3.304 9.092,-4.735 13.827,-4.735c14.169,-0 25.023,11.709 25.023,26.722l-0,25.868l-14.639,-0Zm-50.111,-37.284c-1.501,-0.496 -4.24,-0.716 -5.892,-0.716c-5.653,0 -10.811,3.799 -10.811,12.132l-0,25.868l-14.452,-0l0,-51.237l14.452,-0l-0,3.382c3.566,-3.396 7.599,-4.735 11.6,-4.735c1.23,-0 3.789,-0 5.103,0.201l0,15.105Zm-42.603,37.284l-14.452,-0l0,-3.257c-3.19,3.285 -9.622,4.827 -14.559,4.827c-13.654,-0 -24.103,-11.618 -24.103,-25.897l0,-26.91l14.452,-0l-0,25.571c-0,7.506 4.654,12.755 10.508,12.755c6.479,0 13.702,-3.102 13.702,-12.645l0,-25.681l14.452,-0l-0,51.237Zm-55.366,-62.31l-20.269,-0l-0,46.701l-14.827,15.068l0,-61.769l-18.205,-0l0,-12.95l53.301,-0l0,12.95Zm55.331,-102.212c-70.697,-0 -128,57.315 -128,128c0,70.684 57.303,128 128,128c70.697,-0 128,-57.316 128,-128c0,-70.685 -57.303,-128 -128,-128" style="fill:#54b20e;"/></g></g></svg>